<?xml version="1.0" standalone="no"?>
<!DOCTYPE svg PUBLIC "-//W3C//DTD SVG 20010904//EN"
 "http://www.w3.org/TR/2001/REC-SVG-20010904/DTD/svg10.dtd">
<svg version="1.0" xmlns="http://www.w3.org/2000/svg"
 width="1200.000000pt" height="1200.000000pt" viewBox="0 0 1200.000000 1200.000000"
 preserveAspectRatio="xMidYMid meet">
<g transform="translate(0.000000,1200.000000) scale(0.100000,-0.100000)"
fill="#000000" stroke="none">
<path d="M6040 9059 c-8 -12 -49 -50 -90 -86 -64 -55 -115 -85 -355 -203 -323
-160 -402 -209 -532 -334 -218 -208 -344 -446 -388 -736 -27 -174 -15 -336 40
-524 117 -402 484 -746 940 -881 l97 -29 29 34 c16 18 28 38 26 44 -2 6 -21
14 -41 18 -59 12 -193 79 -292 144 -101 67 -255 215 -332 319 -78 105 -80 103
98 99 83 -1 154 -5 159 -8 5 -4 23 -35 39 -70 65 -139 181 -278 315 -378 84
-62 121 -72 133 -36 5 17 0 26 -22 42 -60 42 -186 172 -233 240 -91 132 -151
273 -190 446 -23 102 -52 319 -43 334 2 4 84 7 181 5 l176 -4 0 45 0 45 -170
1 c-94 0 -176 3 -181 7 -22 13 21 288 68 437 77 243 236 481 381 569 43 26 45
33 15 61 -20 19 -23 19 -47 4 -178 -114 -277 -224 -381 -423 l-45 -86 -152 -3
c-134 -2 -153 -1 -153 13 0 9 28 53 62 98 185 247 457 428 760 507 54 14 72 7
126 -51 l29 -31 103 102 103 101 -54 47 c-30 26 -74 68 -98 94 -49 54 -60 57
-81 27z m-680 -1002 c0 -8 -9 -40 -20 -73 -26 -74 -49 -205 -53 -307 -2 -42
-7 -80 -10 -83 -3 -3 -85 -6 -184 -7 l-178 -1 -4 25 c-8 55 35 236 91 382 l29
77 165 0 c131 0 164 -3 164 -13z m-69 -682 c7 -126 25 -218 58 -302 11 -28 17
-54 14 -57 -4 -3 -79 -6 -169 -6 l-162 0 -32 83 c-17 45 -36 92 -41 104 -14
38 -49 223 -49 264 l0 39 188 -2 187 -3 6 -120z"/>
<path d="M6340 8797 c-169 -163 -362 -318 -533 -427 -93 -60 -97 -63 -81 -81
16 -18 18 -17 74 13 51 29 61 31 84 20 15 -6 31 -23 36 -38 11 -28 14 -1390 3
-1444 -7 -39 -66 -101 -123 -130 -58 -29 -53 -50 11 -50 72 0 110 -22 189
-107 l68 -75 89 90 c51 52 135 121 201 166 61 43 112 81 112 86 0 4 -7 13 -15
20 -12 10 -24 7 -63 -19 -62 -39 -104 -41 -137 -5 l-25 27 0 875 0 875 31 -7
c43 -8 188 -78 245 -117 71 -49 200 -176 249 -244 77 -109 120 -209 150 -355
22 -104 22 -749 0 -861 -38 -201 -136 -371 -285 -495 -65 -54 -253 -147 -330
-164 -90 -20 -91 -21 -77 -50 19 -38 65 -37 192 6 191 64 344 151 495 285 176
155 289 340 351 575 22 84 24 107 24 394 0 325 -5 377 -53 520 -78 236 -235
441 -450 588 -73 50 -341 192 -362 192 -3 0 -34 -28 -70 -63z m252 -174 c85
-44 213 -137 279 -204 55 -56 137 -164 152 -199 6 -14 16 -32 22 -40 35 -45
84 -218 104 -363 16 -114 14 -394 -4 -512 -14 -95 -55 -205 -75 -205 -15 0
-19 73 -24 395 -5 322 -12 381 -56 520 -40 128 -121 271 -205 365 -76 85 -155
160 -196 185 -58 36 -118 83 -112 88 13 14 43 6 115 -30z m-501 -975 c-2 -706
-2 -714 20 -773 44 -124 34 -175 -35 -175 -63 0 -70 31 -31 146 l25 74 1 483
c1 806 2 796 -20 860 -11 32 -17 65 -14 73 5 15 44 36 51 29 2 -2 3 -325 3
-717z"/>
<path d="M5919 6221 c-35 -37 -89 -90 -119 -116 -30 -27 -56 -52 -58 -56 -3
-7 249 -261 254 -256 1 1 59 58 129 126 l126 124 -125 123 c-69 68 -129 124
-134 124 -4 0 -37 -31 -73 -69z m97 -164 c16 6 17 2 8 -21 -7 -18 -39 -22 -49
-6 -11 18 4 45 17 32 6 -6 17 -8 24 -5z"/>
<path d="M5360 5734 c-157 -91 -327 -188 -377 -215 -51 -28 -93 -57 -93 -65 0
-22 30 -64 46 -64 8 0 31 11 52 24 38 25 270 157 545 311 87 48 160 92 163 97
7 10 -27 70 -41 74 -6 1 -138 -72 -295 -162z"/>
<path d="M6313 5865 c-13 -19 -23 -37 -23 -39 0 -6 9 -11 250 -146 342 -192
416 -234 457 -262 53 -35 69 -35 88 2 23 44 19 53 -33 79 -79 40 -614 342
-659 373 -23 15 -45 28 -50 28 -4 0 -18 -16 -30 -35z"/>
<path d="M5957 5694 c-4 -4 -7 -193 -7 -421 l0 -413 45 0 45 0 -2 418 -3 417
-35 3 c-20 2 -39 0 -43 -4z"/>
<path d="M4558 5397 c-54 -52 -98 -97 -98 -101 0 -10 189 -196 198 -196 11 0
192 184 192 195 0 10 -181 195 -190 195 -3 0 -49 -42 -102 -93z"/>
<path d="M7226 5391 l-99 -99 99 -96 c54 -53 100 -96 102 -96 7 0 197 182 200
192 4 8 -186 198 -198 198 -3 0 -50 -45 -104 -99z"/>
<path d="M5853 4764 c-2 -5 -2 -70 -1 -144 l3 -134 140 0 140 0 0 143 0 144
-139 1 c-89 1 -140 -3 -143 -10z"/>
</g>
</svg>
