<?xml version="1.0" standalone="no"?>
<!DOCTYPE svg PUBLIC "-//W3C//DTD SVG 20010904//EN"
 "http://www.w3.org/TR/2001/REC-SVG-20010904/DTD/svg10.dtd">
<svg version="1.0" xmlns="http://www.w3.org/2000/svg"
 width="600.000000pt" height="600.000000pt" viewBox="0 0 600.000000 600.000000"
 preserveAspectRatio="xMidYMid meet">
<g transform="translate(0.000000,600.000000) scale(0.100000,-0.100000)"
fill="#000000" stroke="none">
<path d="M2986 4499 c-27 -24 -107 -71 -203 -119 -222 -111 -323 -202 -394
-355 -31 -70 -59 -192 -59 -262 1 -125 59 -282 143 -384 82 -101 220 -190 346
-225 59 -17 62 -17 75 1 13 18 9 21 -41 41 -107 44 -236 149 -286 233 l-18 31
78 0 79 0 21 -42 c46 -95 172 -218 208 -204 9 3 -9 27 -55 75 -102 103 -154
224 -175 404 l-6 57 91 0 c89 0 91 1 88 23 -3 21 -8 22 -91 25 l-88 3 6 57
c19 163 84 312 178 405 41 41 56 62 49 69 -26 26 -160 -107 -211 -209 l-21
-43 -75 0 -76 0 17 33 c25 48 141 157 212 198 35 20 94 47 133 59 l70 23 31
-23 30 -22 49 48 49 48 -47 48 c-26 26 -51 48 -55 48 -5 0 -28 -18 -52 -41z
m-310 -481 c-10 -40 -25 -122 -31 -170 l-6 -48 -90 0 c-86 0 -89 1 -89 23 1
33 17 98 41 161 l20 56 81 0 c78 0 80 -1 74 -22z m-31 -315 c7 -57 22 -139 31
-171 7 -23 6 -23 -76 -20 l-83 3 -23 60 c-12 33 -25 86 -29 118 l-7 57 90 0
91 0 6 -47z"/>
<path d="M3113 4350 c-48 -45 -125 -106 -170 -137 -45 -31 -80 -60 -77 -65 3
-4 18 -1 34 7 34 18 56 12 64 -18 3 -12 6 -175 6 -362 0 -372 0 -373 -59 -412
-19 -13 -32 -23 -30 -24 2 0 16 -2 31 -4 32 -4 79 -35 106 -70 l19 -24 44 45
c24 25 68 61 97 81 50 35 71 63 35 48 -36 -15 -64 -17 -78 -5 -13 11 -15 74
-15 446 0 492 -8 453 88 407 111 -54 213 -183 241 -304 17 -71 14 -415 -4
-482 -33 -127 -98 -207 -217 -267 -44 -22 -89 -40 -99 -40 -23 0 -25 -18 -4
-27 24 -9 102 16 190 60 107 55 229 174 272 267 47 101 58 159 57 320 -1 155
-14 230 -58 325 -48 105 -157 210 -282 273 -101 51 -92 52 -191 -38z"/>
<path d="M2932 3087 l-62 -63 65 -64 65 -64 65 64 65 64 -62 63 c-34 35 -65
63 -68 63 -3 0 -34 -28 -68 -63z"/>
<path d="M2637 2844 c-176 -100 -209 -126 -173 -140 12 -5 352 180 379 205 8
8 -1 41 -12 41 -4 0 -91 -48 -194 -106z"/>
<path d="M3162 2938 c-7 -7 -12 -15 -12 -19 0 -14 372 -220 386 -215 36 14 4
41 -172 140 -103 59 -187 106 -188 106 -1 0 -7 -5 -14 -12z"/>
<path d="M2980 2640 c0 -203 1 -210 20 -210 19 0 20 7 20 210 0 203 -1 210
-20 210 -19 0 -20 -7 -20 -210z"/>
<path d="M2275 2700 l-50 -50 53 -53 52 -52 52 52 53 53 -50 50 c-27 27 -52
50 -55 50 -3 0 -28 -23 -55 -50z"/>
<path d="M3615 2700 l-50 -50 53 -53 52 -52 52 52 53 53 -50 50 c-27 27 -52
50 -55 50 -3 0 -28 -23 -55 -50z"/>
<path d="M2930 2315 l0 -75 70 0 70 0 0 75 0 75 -70 0 -70 0 0 -75z"/>
</g>
</svg>
